<svg version="1.1" xmlns="http://www.w3.org/2000/svg" xmlns:xlink="http://www.w3.org/1999/xlink" width="33.1969" height="66.42662" viewBox="0,0,33.1969,66.42662"><g transform="translate(-225.55825,-150.26822)"><g data-paper-data="{&quot;isPaintingLayer&quot;:true}" fill-rule="nonzero" stroke="none" stroke-linecap="butt" stroke-linejoin="miter" stroke-miterlimit="10" stroke-dasharray="" stroke-dashoffset="0" style="mix-blend-mode: normal"><path d="M225.55825,172.07824c0,-0.93672 2.68839,-3.72728 3.53245,-3.72728c3.2961,0 20.68397,0 26.44368,0c0.91415,0 3.22076,2.92348 3.22076,4.25504c0,6.13714 0,19.22121 0,21.8359c0,0.62808 -2.30679,3.99115 -3.22076,3.99115c-5.80621,0 -23.48414,0 -26.35044,0c-0.60825,0 -3.6257,-3.33833 -3.6257,-4.51892c0,0 0,-18.70908 0,-21.8359z" fill="#787580" stroke-width="0"/><g fill="#000000"><text transform="translate(232.42242,193.86896) scale(1.01619,1.01619)" font-size="40" xml:space="preserve" fill="#000000" fill-rule="nonzero" stroke="none" stroke-width="1" stroke-linecap="butt" stroke-linejoin="miter" stroke-miterlimit="10" stroke-dasharray="" stroke-dashoffset="0" font-family="Sans Serif" font-weight="normal" text-anchor="start" style="mix-blend-mode: normal"><tspan x="0" dy="0">=</tspan></text><text transform="translate(232.42244,173.09459) scale(1.01619,-1.01617)" font-size="40" xml:space="preserve" data-paper-data="{&quot;index&quot;:null}" fill="#000000" fill-rule="nonzero" stroke="none" stroke-width="1" stroke-linecap="butt" stroke-linejoin="miter" stroke-miterlimit="10" stroke-dasharray="" stroke-dashoffset="0" font-family="Sans Serif" font-weight="normal" text-anchor="start" style="mix-blend-mode: normal"><tspan x="0" dy="0">=</tspan></text><path d="M232.38817,175.45772c0,1.06476 -0.86316,1.92792 -1.92792,1.92792c-1.06476,0 -1.92792,-0.86316 -1.92792,-1.92792c0,-1.06476 0.86315,-1.92792 1.92792,-1.92792c1.06476,0 1.92792,0.86316 1.92792,1.92792z" stroke-width="0"/><path d="M232.25927,183.22414c0,1.06476 -0.86316,1.92792 -1.92792,1.92792c-1.06476,0 -1.92792,-0.86316 -1.92792,-1.92792c0,-1.06476 0.86316,-1.92792 1.92792,-1.92792c1.06476,0 1.92792,0.86316 1.92792,1.92792z" stroke-width="0"/><path d="M232.31398,191.725c0,1.06476 -0.86316,1.92792 -1.92792,1.92792c-1.06476,0 -1.92792,-0.86316 -1.92792,-1.92792c0,-1.06476 0.86316,-1.92792 1.92792,-1.92792c1.06476,0 1.92792,0.86316 1.92792,1.92792z" stroke-width="0"/></g></g></g></svg>